<?xml version="1.0" encoding="utf-8"?>
<!-- Generator: Adobe Illustrator 23.0.1, SVG Export Plug-In . SVG Version: 6.00 Build 0)  -->
<svg version="1.1" id="Layer_1" xmlns="http://www.w3.org/2000/svg" xmlns:xlink="http://www.w3.org/1999/xlink" x="0px" y="0px"
	 viewBox="0 0 1121.8 533.8" style="enable-background:new 0 0 1121.8 533.8;" xml:space="preserve">
<style type="text/css">
	.st0{fill:#1A1A1A;}
	.st1{display:none;}
	.st2{display:inline;}
	.st3{display:inline;fill:#1A1A1A;}
	.st4{display:inline;fill:#C1272D;}
	.st5{display:inline;fill:#009245;}
	.st6{display:inline;opacity:8.000000e-02;fill:#FFFFFF;enable-background:new    ;}
	.st7{display:inline;opacity:0.1;enable-background:new    ;}
	.st8{display:none;fill:#C1272D;}
	.st9{display:none;fill:#009245;}
	.st10{display:none;fill:none;}
</style>
<g>
	<g>
		<g>
			<g>
				<circle cx="565.8" cy="192.5" r="72"/>
				<circle class="st0" cx="565.8" cy="192.5" r="61.7"/>
			</g>
		</g>
		<g>
			<g>
				<circle cx="720.8" cy="126.5" r="72"/>
				<circle class="st0" cx="720.8" cy="126.5" r="61.7"/>
			</g>
		</g>
		<g>
			<g>
				<circle cx="888.8" cy="154.5" r="72"/>
				<circle class="st0" cx="888.8" cy="154.5" r="61.7"/>
			</g>
		</g>
		<g>
			<g>
				<circle cx="1049.8" cy="225.5" r="72"/>
				
					<ellipse transform="matrix(0.1735 -0.9848 0.9848 0.1735 645.5766 1220.2532)" class="st0" cx="1049.8" cy="225.5" rx="61.7" ry="61.7"/>
			</g>
		</g>
		<g>
			<g>
				<ellipse transform="matrix(0.1602 -0.9871 0.9871 0.1602 453.3682 1347.8705)" cx="1018.8" cy="407.5" rx="72" ry="72"/>
				<circle class="st0" cx="1018.8" cy="407.5" r="61.7"/>
			</g>
		</g>
		<g>
			<g>
				<circle cx="857.8" cy="336.5" r="72"/>
				<circle class="st0" cx="857.8" cy="336.5" r="61.7"/>
			</g>
		</g>
		<g>
			<g>
				<circle cx="688.8" cy="308.5" r="72"/>
				<circle class="st0" cx="688.8" cy="308.5" r="61.7"/>
			</g>
		</g>
		<g>
			<circle cx="532.8" cy="373.5" r="72"/>
			<circle class="st0" cx="532.8" cy="373.5" r="61.7"/>
		</g>
	</g>
</g>
<g>
	<g>
		<g class="st1">
			<path class="st2" d="M267.5,168c-49.8,0-90.2,40.3-90.2,90.2c0,24.5,9.8,46.7,25.6,63l127.5-127.5C314.3,177.8,292,168,267.5,168
				z"/>
			<path class="st2" d="M330.5,193.6L202.9,321.2c16.5,16.8,39.2,27.2,64.6,27.2c49.8,0,90.2-40.3,90.2-90.2
				C357.7,232.9,347.2,210.1,330.5,193.6z"/>
		</g>
		<circle cx="267.5" cy="258.2" r="90.2"/>
	</g>
	<g id="Top_Right_2_" class="st1">
		<path class="st3" d="M270.1,411.1c3.8,0,6.9-3.2,6.7-7l-1.6-131c0-3.8-3-6.9-6.7-7c-3.8,0-6.9,3-7,6.7l1.6,131.4
			C263.2,408.1,266.4,411.1,270.1,411.1z"/>
		<circle class="st4" cx="269.3" cy="348.8" r="70"/>
		<circle class="st4" cx="268.3" cy="273" r="70"/>
		<circle class="st5" cx="278.8" cy="311.9" r="83.9"/>
		
			<ellipse transform="matrix(0.9564 -0.292 0.292 0.9564 -104.5791 99.9077)" class="st6" cx="282.4" cy="400.3" rx="16.4" ry="6.9"/>
		<path class="st7" d="M210.2,340.4c26-38.3,78.4-48.2,116.6-22.1c2.9,2,5.7,4.2,8.3,6.5c-4.9-13.3-13.7-25.4-26.4-34
			c-32-21.8-75.6-13.5-97.3,18.5c-10.6,15.5-14,33.8-11.2,51C202.7,353.4,206,346.8,210.2,340.4z"/>
	</g>
	<g id="Top_Right_3_" class="st1">
		<path class="st3" d="M367.2,369.5c2.6-2.8,2.6-7-0.1-9.8l-93.8-91.4c-2.6-2.8-7-2.8-9.8-0.1c-2.8,2.6-2.8,7-0.1,9.8l94,91.7
			C360.2,372.2,364.5,372.2,367.2,369.5z"/>
		<circle class="st4" cx="322.5" cy="325.9" r="70"/>
		<circle class="st4" cx="268.3" cy="273" r="70"/>
		<circle class="st5" cx="303.2" cy="293.1" r="83.9"/>
		
			<ellipse transform="matrix(0.4698 -0.8828 0.8828 0.4698 -116.4894 512.2898)" class="st6" cx="368.2" cy="353.1" rx="16.4" ry="6.9"/>
		<path class="st7" d="M275,361.8c-8.6-45.6,21.3-89.5,66.9-98.1c3.6-0.7,7-1.1,10.4-1.3c-12.8-6.1-27.6-8.2-42.7-5.4
			c-38.1,7.1-63,43.9-55.8,81.8c3.4,18.5,14,33.8,28.1,43.9C278.7,376.4,276.3,369.2,275,361.8z"/>
	</g>
	<g id="Top_Right_4_" class="st1">
		<path class="st3" d="M130.4,274.8c0,3.8,3.2,6.9,7,6.7l131-1.6c3.8,0,6.9-3,7-6.7c0-3.8-3-6.9-6.7-7l-131.4,1.6
			C133.3,267.9,130.3,270.9,130.4,274.8z"/>
		<circle class="st4" cx="192.8" cy="274" r="70"/>
		<circle class="st4" cx="268.3" cy="273" r="70"/>
		<circle class="st5" cx="229.5" cy="283.5" r="83.9"/>
		
			<ellipse transform="matrix(0.9564 -0.292 0.292 0.9564 -77.6913 53.7371)" class="st6" cx="141.2" cy="287.1" rx="6.9" ry="16.4"/>
		<path class="st7" d="M201,214.9c38.3,26,48.2,78.4,22.1,116.6c-2,2.9-4.2,5.7-6.5,8.3c13.3-4.9,25.4-13.7,34-26.4
			c21.8-32,13.5-75.6-18.5-97.3c-15.5-10.6-33.8-14-51-11.2C188,207.2,194.7,210.5,201,214.9z"/>
	</g>
	<g id="Top_Right_5_" class="st1">
		<path class="st3" d="M169.6,176.6c-2.6,2.8-2.6,7,0.1,9.8l93.8,91.4c2.6,2.8,7,2.8,9.8,0.1c2.8-2.6,2.8-7,0.1-9.8l-94-91.7
			C176.6,173.8,172.3,173.9,169.6,176.6z"/>
		<circle class="st4" cx="214.2" cy="220.2" r="70"/>
		<circle class="st4" cx="268.3" cy="273" r="70"/>
		<circle class="st5" cx="233.5" cy="253" r="83.9"/>
		
			<ellipse transform="matrix(0.4698 -0.8828 0.8828 0.4698 -81.1029 251.1642)" class="st6" cx="168.5" cy="193.1" rx="16.4" ry="6.9"/>
		<path class="st7" d="M261.9,184.2c8.6,45.6-21.3,89.5-66.9,98.1c-3.6,0.7-7,1.1-10.4,1.3c12.8,6.1,27.6,8.2,42.7,5.4
			c38.1-7.1,63-43.9,55.8-81.8c-3.4-18.5-14-33.8-28.1-43.9C258,169.7,260.4,176.8,261.9,184.2z"/>
	</g>
	<g id="Top_Right_6_" class="st1">
		<path class="st3" d="M266.6,135c-3.8,0-6.9,3.2-6.7,7l1.6,131c0,3.8,3,6.9,6.7,7c3.8,0,6.9-3,7-6.7l-1.6-131.4
			C273.6,138,270.5,135,266.6,135z"/>
		<circle class="st4" cx="267.4" cy="197.3" r="70"/>
		<circle class="st4" cx="268.3" cy="273" r="70"/>
		<circle class="st5" cx="257.9" cy="234.2" r="83.9"/>
		
			<ellipse transform="matrix(0.9564 -0.292 0.292 0.9564 -31.5106 80.6197)" class="st6" cx="254.3" cy="145.9" rx="16.4" ry="6.9"/>
		<path class="st7" d="M326.6,205.7c-26,38.3-78.4,48.2-116.6,22.1c-2.9-2-5.7-4.2-8.3-6.5c4.9,13.3,13.7,25.4,26.4,34
			c32,21.8,75.6,13.5,97.3-18.5c10.6-15.5,14-33.8,11.2-51C334.2,192.7,330.8,199.3,326.6,205.7z"/>
	</g>
	<g id="Top_Right_7_" class="st1">
		<path class="st3" d="M406.4,271.3c0-3.8-3.2-6.9-7-6.7l-131,1.6c-3.8,0-6.9,3-7,6.7c0,3.8,3,6.9,6.7,7l131.4-1.6
			C403.4,278.2,406.4,275.2,406.4,271.3z"/>
		<circle class="st4" cx="344.1" cy="272.1" r="70"/>
		<circle class="st4" cx="268.3" cy="273" r="70"/>
		<circle class="st5" cx="307.3" cy="262.6" r="83.9"/>
		
			<ellipse transform="matrix(0.9564 -0.292 0.292 0.9564 -58.4034 126.8056)" class="st6" cx="395.6" cy="259.1" rx="6.9" ry="16.4"/>
		<path class="st7" d="M335.7,331.2c-38.3-26-48.2-78.4-22.1-116.6c2-2.9,4.2-5.7,6.5-8.3c-13.3,4.9-25.4,13.7-34,26.4
			c-21.8,32-13.5,75.6,18.5,97.3c15.5,10.6,33.8,14,51,11.2C348.7,338.9,342.1,335.5,335.7,331.2z"/>
	</g>
	<g id="Top_Right_1_" class="st1">
		<path class="st3" d="M172,371.9c2.8,2.6,7,2.6,9.8-0.1l91.4-93.8c2.8-2.6,2.8-7,0.1-9.8c-2.6-2.8-7-2.8-9.8-0.1l-91.7,94
			C169.2,364.9,169.2,369.2,172,371.9z"/>
		<circle class="st4" cx="215.5" cy="327.2" r="70"/>
		<circle class="st4" cx="268.3" cy="273" r="70"/>
		<circle class="st5" cx="248.3" cy="307.9" r="83.9"/>
		
			<ellipse transform="matrix(0.4698 -0.8828 0.8828 0.4698 -229.3697 363.9919)" class="st6" cx="188.3" cy="372.9" rx="6.9" ry="16.4"/>
		<path class="st7" d="M179.5,279.5c45.6-8.6,89.5,21.3,98.1,66.9c0.7,3.6,1.1,7,1.3,10.4c6.1-12.8,8.2-27.6,5.4-42.7
			c-7.1-38.1-43.9-63-81.8-55.8c-18.5,3.4-33.8,14-43.9,28.1C165.1,283.4,172.1,281,179.5,279.5z"/>
	</g>
	<g id="Top_Right" class="st1">
		<path class="st3" d="M364.8,174.2c-2.8-2.6-7-2.6-9.8,0.1l-91.4,93.8c-2.8,2.6-2.8,7-0.1,9.8s7,2.8,9.8,0.1l91.7-94
			C367.6,181.2,367.5,176.8,364.8,174.2z"/>
		<circle class="st4" cx="321.2" cy="218.9" r="70"/>
		<circle class="st4" cx="268.3" cy="273" r="70"/>
		<circle class="st5" cx="288.6" cy="238.2" r="83.9"/>
		
			<ellipse transform="matrix(0.4698 -0.8828 0.8828 0.4698 31.8918 399.3713)" class="st6" cx="348.4" cy="173.1" rx="6.9" ry="16.4"/>
		<path class="st7" d="M357.1,266.6c-45.6,8.6-89.5-21.3-98.1-66.9c-0.7-3.6-1.1-7-1.3-10.4c-6.1,12.8-8.2,27.6-5.4,42.7
			c7.1,38.1,43.9,63,81.8,55.8c18.5-3.4,33.8-14,43.9-28.1C371.7,262.7,364.7,265.1,357.1,266.6z"/>
	</g>
	<g>
		<circle class="st8" cx="268.3" cy="273" r="70"/>
		<circle class="st9" cx="288.6" cy="238.2" r="83.9"/>
	</g>
	<g>
		<line class="st10" x1="201.2" y1="396.6" x2="201.2" y2="148.2"/>
		<line class="st10" x1="77" y1="273.7" x2="325.4" y2="273.7"/>
		<line class="st10" x1="113.2" y1="185.2" x2="288.8" y2="360.9"/>
	</g>
</g>
<g>
	<circle cx="333.4" cy="51.5" r="41"/>
	<circle class="st0" cx="333.4" cy="51.5" r="35.1"/>
</g>
<g>
	<circle cx="452.8" cy="51.5" r="41"/>
	<circle class="st0" cx="452.8" cy="51.5" r="35.1"/>
</g>
<script  xmlns=""></script>
</svg>
